# xmcd
#
# Track frame offsets:
#	150
#	14582
#	30540
#	47944
#	64265
#	79986
#	96918
#	115858
#	133250
#	151951
#	165239
#	182140
#	197077
#	213609
#
# Disc length: 3045 seconds
#
# Revision: 1
# Processed by: cddbd v1.5.2PL0 Copyright (c) Steve Scherf et al.
# Submitted via: audiograbber 1.83.01
#
DISCID=c60be30e
DTITLE=Ronnie Dunn - Ronnie Dunn
DYEAR=2013
DGENRE=Country
TTITLE0=I Love My Country
TTITLE1=Singer In A Cowboy Band
TTITLE2=I Don't Dance
TTITLE3=Your Kind Of Love
TTITLE4=How Far To Waco
TTITLE5=Once
TTITLE6=Cost Of Livin'
TTITLE7=Bleed Red
TTITLE8=Last Love I'm Tryin'
TTITLE9=Let The Cowboy Rock
TTITLE10=I Can't Help Myself
TTITLE11=I Just Get Lonely
TTITLE12=Love Owes Me One
TTITLE13=Keep On Lovin' You
EXTD=
EXTT0=
EXTT1=
EXTT2=
EXTT3=
EXTT4=
EXTT5=
EXTT6=
EXTT7=
EXTT8=
EXTT9=
EXTT10=
EXTT11=
EXTT12=
EXTT13=
PLAYORDER=
